<svg width="22" height="22" viewBox="0 0 22 22" xmlns="http://www.w3.org/2000/svg">
  <defs>
    <style type="text/css" id="current-color-scheme">.ColorScheme-Text { color: #fcfcfc; } </style>
  </defs>
  <path fill="currentColor" d="M10 2c-.3 0-.5.2-.5.5 0 .1 0 .2.1.3C11.2 4.6 12 6.7 12 9c0 4.4-3.6 8-8 8-.3 0-.5-.1-.8-.1-.3 0-.5.2-.5.5 0 .2.1.4.3.5C4.7 19.2 6.8 20 9 20c5 0 9-4 9-9 0-5-4-9-9-9zm0 1c4.4 0 8 3.6 8 8s-3.6 8-8 8c-1.5 0-2.8-.4-4-1.1C6.3 17.9 6.7 18 7 18c2.1 0 4-.8 5.4-2.2C13.8 14.4 15 12.3 15 10c0-2.8-1.4-5.2-3.5-6.7-.5-.2-1-.3-1.5-.3zM16 3v1h2l-2 2v1h3V6h-2l2-2V3zm2 5v1h1.5L18 10.5V11h2.5v-1H19l1.5-1.5V8z" style="fill:currentColor;" class="ColorScheme-Text"/>
</svg>
